<?xml version="1.0" standalone="no"?><!DOCTYPE svg PUBLIC "-//W3C//DTD SVG 1.1//EN" "http://www.w3.org/Graphics/SVG/1.1/DTD/svg11.dtd"><svg t="1714341844857" class="icon" viewBox="0 0 1024 1024" version="1.1" xmlns="http://www.w3.org/2000/svg" p-id="1266" xmlns:xlink="http://www.w3.org/1999/xlink" width="200" height="200"><path d="M512 258.517333q106.197333 0 106.197333-106.88 0-106.837333-106.197333-106.837333T405.802667 151.637333q0 44.202667 31.018666 75.477334 31.146667 31.402667 75.178667 31.402666z m0-149.717333q42.197333 0 42.197333 42.837333 0 42.88-42.197333 42.88-20.736 0-31.317333-10.368-10.88-10.709333-10.88-32.512 0-42.837333 42.197333-42.837333z" fill="#1296db" p-id="1267"></path><path d="M11.52 395.946667l46.677333 281.984 12.032 72.32 11.690667 68.949333 5.205333 32.256q19.797333 119.210667 138.24 119.210667h573.312q118.4 0 138.24-119.253334l75.52-455.466666q6.741333-40.490667-27.093333-62.933334-34.901333-23.168-68.693333 0.853334l-160.554667 112.213333-200.832-204.202667-0.256-0.298666q-43.008-41.557333-86.016 0l-0.256 0.298666-200.832 204.202667-160.298667-112.042667q-34.048-24.192-68.949333-1.024-33.834667 22.442667-27.093333 62.890667z m133.546667 413.013333l-11.733334-69.376-11.946666-72.106667-45.994667-277.845333 158.293333 110.592q43.221333 30.72 78.634667-8.064L512 289.152l200.490667 203.818667 0.341333 0.298666q36.608 35.114667 77.312 7.082667l158.464-110.72L873.813333 840.96q-10.922667 65.706667-75.093333 65.706667H225.28q-64.170667 0-75.093333-65.706667l-5.12-32z" fill="#1296db" p-id="1268"></path><path d="M352 640q0 160 160 160T672 640q0-160-160-160T352 640z m256 0q0 96-96 96T416 640q0-39.765333 28.117333-67.882667 28.117333-28.117333 67.882667-28.117333 39.765333 0 67.882667 28.117333 28.117333 28.117333 28.117333 67.882667z" fill="#1296db" p-id="1269"></path><path d="M604.672 731.52l75.562667 75.776" fill="#1296db" p-id="1270"></path><path d="M702.890667 784.682667l-75.52-75.733334q-2.261333-2.261333-4.864-4.010666-2.645333-1.749333-5.546667-2.986667-2.901333-1.194667-5.973333-1.792-3.114667-0.64-6.272-0.64t-6.229334 0.597333q-3.114667 0.64-5.973333 1.834667-2.986667 1.194667-5.546667 2.944-2.645333 1.706667-4.864 3.968-2.261333 2.218667-4.010666 4.864-1.749333 2.602667-2.986667 5.546667-1.194667 2.858667-1.792 5.973333-0.64 3.072-0.64 6.229333t0.597333 6.229334q0.64 3.114667 1.834667 6.016 1.194667 2.944 2.944 5.546666 1.706667 2.602667 3.968 4.864l75.52 75.776q2.261333 2.218667 4.864 3.968 2.645333 1.749333 5.546667 2.986667 2.901333 1.194667 5.973333 1.792 3.114667 0.64 6.272 0.64t6.229333-0.597333q3.114667-0.64 6.016-1.834667 2.901333-1.194667 5.546667-2.944 2.602667-1.706667 4.864-3.968 4.48-4.48 6.954667-10.368 2.432-5.888 2.432-12.245333 0-6.4-2.432-12.245334-2.432-5.888-6.912-10.410666z" fill="#1296db" p-id="1271"></path></svg>